#!OML:ASF F:\VICON\USERDATA\INSTALL\rory3\rory3.ASF
:FULLY-SPECIFIED
:DEGREES
711
root 3.52674 18.1606 0.709354 -6.219 -28.9029 4.27972
lowerback 6.94247 -3.61245 -3.7516
upperback 2.84158 -5.04764 2.05414
thorax -0.429729 -2.58429 4.56544
lowerneck -5.66986 -1.36231 -5.71986
upperneck 4.31406 -1.80406 7.593
head 2.56065 -0.777154 3.47427
rclavicle 1.98785e-015 1.59028e-014
rhumerus -70.8887 -23.6002 -7.68687
rradius 8.37796
rwrist 14.9244
rhand -39.0252 -14.1396
rfingers 7.12502
rthumb -12.028 -43.774
lclavicle 1.98785e-015 1.59028e-014
lhumerus -50.1991 9.76996 69.8072
lradius 76.9945
lwrist -2.5757
lhand -21.9332 21.5419
lfingers 7.12502
lthumb 4.47331 51.4746
rfemur -25.0461 17.2485 7.5685
rtibia 31.2318
rfoot -1.68812 -7.60403
rtoes -13.5297
lfemur 7.94454 10.2236 -21.4042
ltibia 40.7563
lfoot -13.1682 16.1679
ltoes -27.5198
712
root 3.62021 18.1359 0.616173 -5.86711 -28.8321 4.33412
lowerback 6.96719 -3.63731 -3.9942
upperback 2.82389 -5.09654 2.09643
thorax -0.430372 -2.6109 4.75001
lowerneck -5.54351 -1.4165 -5.62114
upperneck 3.95594 -1.8698 7.55635
head 2.4189 -0.813257 3.43395
rclavicle -1.55847e-013 3.49861e-014
rhumerus -70.4757 -22.9977 -9.4059
rradius 8.29898
rwrist 12.6671
rhand -39.7048 -14.9128
rfingers 7.12502
rthumb -12.6832 -44.5077
lclavicle -1.55847e-013 3.49861e-014
lhumerus -49.3485 9.01703 69.8278
lradius 74.8736
lwrist -2.49078
lhand -22.1674 20.5007
lfingers 7.12502
lthumb 4.24712 50.4381
rfemur -25.8163 17.4954 7.00665
rtibia 30.9099
rfoot -1.33174 -8.13607
rtoes -12.1964
lfemur 8.26794 9.58547 -22.1501
ltibia 38.9898
lfoot -15.5381 16.905
ltoes -28.5067
713
root 3.71325 18.1137 0.519357 -5.3606 -28.7691 4.11936
lowerback 7.01222 -3.68964 -3.9772
upperback 2.81294 -5.16556 2.18571
thorax -0.451888 -2.64539 4.84094
lowerneck -5.47251 -1.47512 -5.68878
upperneck 3.55976 -1.93507 7.71514
head 2.28304 -0.846315 3.49506
rclavicle -4.37326e-015 3.10104e-014
rhumerus -69.9391 -22.5739 -11.2335
rradius 8.14496
rwrist 10.5977
rhand -40.3888 -15.5818
rfingers 7.12502
rthumb -13.3426 -45.1346
lclavicle -4.37326e-015 3.10104e-014
lhumerus -48.357 8.29148 69.7664
lradius 72.7904
lwrist -2.42285
lhand -22.0334 20.4268
lfingers 7.12502
lthumb 4.37655 50.3615
rfemur -26.6081 17.7783 6.68301
rtibia 30.615
rfoot -1.64431 -9.24951
rtoes -7.48961
lfemur 8.46505 9.00308 -22.5323
ltibia 37.3319
lfoot -17.4344 17.2634
ltoes -28.7777
714
root 3.80937 18.0915 0.415649 -4.74803 -28.6276 3.84726
lowerback 7.01872 -3.74076 -3.88851
upperback 2.80826 -5.22684 2.28194
thorax -0.452297 -2.67612 4.89533
lowerneck -5.63712 -1.54368 -5.75339
upperneck 3.38112 -2.01465 7.876
head 2.26518 -0.88094 3.55971
rclavicle -5.1684e-014 5.08889e-014
rhumerus -69.4299 -22.3518 -13.0509
rradius 7.90859
rwrist 8.86973
rhand -41.4964 -16.1211
rfingers 7.12502
rthumb -14.4099 -45.6009
lclavicle -5.1684e-014 5.08889e-014
lhumerus -47.1481 7.56529 69.7121
lradius 70.6829
lwrist -2.43788
lhand -21.0069 21.5952
lfingers 7.12502
lthumb 5.36766 51.5073
rfemur -27.4937 18.0452 6.3497
rtibia 30.3718
rfoot -0.924743 -9.78236
rtoes -8.63262
lfemur 8.41973 8.36626 -22.8185
ltibia 35.8253
lfoot -18.8957 17.5183
ltoes -28.8707
715
root 3.90114 18.0679 0.306341 -4.37197 -28.1831 4.22177
lowerback 7.06491 -3.81768 -4.51507
upperback 2.71387 -5.37129 2.2707
thorax -0.500285 -2.74966 5.2495
lowerneck -5.68784 -1.60021 -5.75745
upperneck 3.18116 -2.08001 7.92173
head 2.21418 -0.912732 3.57185
rclavicle 1.70955e-014 1.51076e-014
rhumerus -69.0085 -22.0785 -14.786
rradius 7.75071
rwrist 7.52232
rhand -42.5237 -15.8779
rfingers 7.12502
rthumb -15.3996 -45.2844
lclavicle 1.70955e-014 1.51076e-014
lhumerus -45.9271 6.79433 69.7624
lradius 68.4582
lwrist -2.1025
lhand -20.1072 22.0473
lfingers 7.12502
lthumb 6.23632 51.9355
rfemur -28.3825 18.0241 5.34434
rtibia 30.2066
rfoot -0.0584037 -10.1239
rtoes -11.1571
lfemur 8.15493 7.66626 -23.66
ltibia 34.491
lfoot -20.2237 17.7693
ltoes -28.2525
716
root 3.99202 18.0492 0.19644 -3.95922 -27.8167 4.32285
lowerback 7.27823 -3.86884 -4.90336
upperback 2.59774 -5.47314 2.33604
thorax -0.68148 -2.79528 5.5639
lowerneck -5.61211 -1.64869 -5.8612
upperneck 2.91844 -2.13018 7.99529
head 2.12047 -0.940479 3.61293
rclavicle -2.97183e-014 -1.90833e-014
rhumerus -68.5688 -21.7829 -16.4939
rradius 7.66332
rwrist 6.40892
rhand -42.7963 -15.3674
rfingers 7.12502
rthumb -15.6622 -44.7535
lclavicle -2.97183e-014 -1.90833e-014
lhumerus -44.741 5.90345 69.9328
lradius 66.1687
lwrist -1.2724
lhand -20.5343 21.623
lfingers 7.12502
lthumb 5.82397 51.5229
rfemur -29.1186 18.1404 4.6332
rtibia 30.0395
rfoot 0.348677 -10.9214
rtoes -12.3605
lfemur 7.84992 7.17147 -24.1214
ltibia 33.3889
lfoot -21.5079 17.8725
ltoes -27.4786
717
root 4.07808 18.0302 0.087111 -3.59649 -27.5103 4.44967
lowerback 7.40326 -3.89824 -5.26726
upperback 2.56766 -5.54294 2.33729
thorax -0.736421 -2.82984 5.7848
lowerneck -5.56606 -1.72566 -6.03371
upperneck 2.60149 -2.21444 8.17519
head 2.02122 -0.983522 3.70369
rclavicle -2.5842e-015 -1.59028e-015
rhumerus -68.0409 -21.7289 -18.3292
rradius 7.5394
rwrist 5.29407
rhand -42.6655 -15.3606
rfingers 7.12502
rthumb -15.5362 -44.7565
lclavicle -2.5842e-015 -1.59028e-015
lhumerus -43.407 5.01307 69.9803
lradius 64.0012
lwrist -0.813993
lhand -20.7746 21.378
lfingers 7.12502
lthumb 5.59194 51.2842
rfemur -29.8234 18.2367 3.93327
rtibia 29.899
rfoot -0.128513 -12.5755
rtoes -10.28
lfemur 7.52639 6.92061 -24.4981
ltibia 32.4512
lfoot -22.6481 17.8506
ltoes -26.7278
